<?xml version="1.0" encoding="utf-8"?>
<!-- Generator: Adobe Illustrator 19.0.0, SVG Export Plug-In . SVG Version: 6.00 Build 0)  -->
<svg version="1.1" id="Layer_1" xmlns="http://www.w3.org/2000/svg" xmlns:xlink="http://www.w3.org/1999/xlink" role="img" width="60" height="90" x="0px" y="0px"
	 viewBox="0 0 500 500" style="enable-background:new 0 0 500 500;" xml:space="preserve">
<style type="text/css">
	.st0{fill:url(#SVGID_1_);}
</style>
<g id="XMLID_1_">
	
		<linearGradient id="SVGID_1_" gradientUnits="userSpaceOnUse" x1="250" y1="352.7188" x2="250" y2="147.5012" gradientTransform="matrix(1 0 0 -1 0 500.11)">
		<stop  offset="0" style="stop-color:#F79810"/>
		<stop  offset="1" style="stop-color:#F8310E"/>
	</linearGradient>
	<path class="st0" d="M74.1,240.9c-0.8,0-1.3,0.6-1.4,1.4l-2.6,20l2.6,19.7c0.1,0.8,0.7,1.4,1.4,1.4c0.7,0,1.3-0.6,1.4-1.4l0,0v0
		c0,0,0,0,0,0l3.1-19.7l-3.1-20C75.4,241.5,74.8,240.9,74.1,240.9z M88.9,230c-0.1-0.9-0.7-1.5-1.5-1.5c-0.8,0-1.4,0.6-1.5,1.5
		c0,0-3.5,32.3-3.5,32.3l3.5,31.6c0.1,0.8,0.7,1.5,1.5,1.5c0.8,0,1.4-0.6,1.5-1.5l4-31.6L88.9,230z M144.6,200.1
		c-1.5,0-2.7,1.2-2.7,2.7l-2.8,59.5l2.8,38.4c0.1,1.5,1.3,2.7,2.7,2.7c1.4,0,2.6-1.2,2.7-2.7v0l3.2-38.4l-3.2-59.5
		C147.3,201.3,146.1,200.1,144.6,200.1z M115.8,220.8c-1.1,0-2,0.9-2.1,2.1l-3.2,39.4l3.2,38.1c0.1,1.2,1,2.1,2.1,2.1
		c1.1,0,2-0.9,2.1-2.1l3.6-38.1l-3.6-39.4C117.8,221.7,116.9,220.8,115.8,220.8z M174,303.5c1.8,0,3.3-1.5,3.3-3.3l2.8-37.8
		l-2.8-79.2c-0.1-1.9-1.5-3.3-3.3-3.3c-1.8,0-3.3,1.5-3.3,3.3c0,0-2.5,79.2-2.5,79.2l2.5,37.8C170.7,302,172.2,303.5,174,303.5z
		 M234,303.6c2.5,0,4.5-2,4.6-4.5v0v0l1.9-36.7l-1.9-91.5c0-2.5-2.1-4.5-4.6-4.5c-2.5,0-4.5,2-4.6,4.6l-1.7,91.4
		c0,0.1,1.7,36.8,1.7,36.8C229.5,301.6,231.5,303.6,234,303.6z M203.8,303.5c2.2,0,3.9-1.7,4-3.9v0l2.3-37.2l-2.3-79.8
		c-0.1-2.2-1.8-3.9-4-3.9c-2.2,0-3.9,1.7-4,3.9l-2.1,79.8l2.1,37.2C199.9,301.8,201.6,303.5,203.8,303.5z M130.2,303.1
		c1.3,0,2.3-1,2.4-2.4l3.4-38.4l-3.4-36.6c-0.1-1.4-1.1-2.4-2.4-2.4c-1.3,0-2.3,1-2.4,2.4l-3,36.6l3,38.4
		C127.8,302.1,128.9,303.1,130.2,303.1z M101.5,301c0.9,0,1.7-0.7,1.8-1.8l3.8-37l-3.8-38.4c-0.1-1-0.9-1.8-1.8-1.8
		c-0.9,0-1.7,0.7-1.8,1.8c0,0-3.4,38.4-3.4,38.4l3.4,37C99.8,300.3,100.6,301,101.5,301z M218.8,181.3c-2.3,0-4.2,1.9-4.3,4.2
		l-1.9,76.9l1.9,37c0,2.4,1.9,4.2,4.3,4.2c2.3,0,4.2-1.9,4.3-4.2v0l2.1-37l-2.1-76.9C223,183.1,221.2,181.3,218.8,181.3z
		 M159.3,303.5c1.6,0,3-1.3,3-3l3-38.2l-3-73.1c-0.1-1.7-1.4-3-3-3c-1.6,0-3,1.3-3,3c0,0-2.6,73.1-2.6,73.1l2.6,38.2
		C156.3,302.2,157.6,303.5,159.3,303.5z M192.5,299.9L192.5,299.9l2.6-37.6l-2.6-81.9c-0.1-2-1.7-3.6-3.6-3.6c-2,0-3.6,1.6-3.6,3.6
		l-2.3,81.9l2.3,37.6c0.1,2,1.7,3.6,3.6,3.6C190.8,303.5,192.4,301.9,192.5,299.9L192.5,299.9z M385.7,215.2
		c-6.1,0-11.9,1.2-17.1,3.4c-3.5-39.9-37-71.2-77.8-71.2c-10,0-19.7,2-28.3,5.3c-3.3,1.3-4.2,2.6-4.3,5.2v140.5c0,2.7,2.1,5,4.8,5.2
		c0.1,0,122,0.1,122.7,0.1c24.5,0,44.3-19.8,44.3-44.3C430,235,410.2,215.2,385.7,215.2z M249.1,157.8c-2.7,0-4.8,2.2-4.9,4.9
		l-2,99.8l2,36.2c0,2.6,2.2,4.8,4.9,4.8c2.7,0,4.8-2.2,4.9-4.9v0l2.2-36.2l-2.2-99.8C254,160,251.8,157.8,249.1,157.8z M105.8,331.9
		c-5.2-1.2-6.7-1.9-6.7-4c0-1.5,1.2-3,4.7-3c3,0,5.4,1.2,7.5,3.4l4.8-4.6c-3.1-3.3-6.9-5.2-12-5.2c-6.5,0-11.8,3.7-11.8,9.7
		c0,6.5,4.3,8.4,10.3,9.9c6.2,1.4,7.4,2.4,7.4,4.5c0,2.5-1.8,3.6-5.8,3.6c-3.2,0-6.1-1.1-8.5-3.8l-4.8,4.3c2.5,3.7,7.3,6,12.8,6
		c9,0,13-4.2,13-10.5C116.8,334.9,111,333.1,105.8,331.9z M136.2,318.5c-9,0-14.3,7-14.3,17c0,10.1,5.3,17,14.3,17s14.4-7,14.4-17
		C150.5,325.5,145.2,318.5,136.2,318.5z M136.2,346.1c-5.3,0-7.6-4.6-7.6-10.5c0-5.9,2.2-10.5,7.6-10.5c5.3,0,7.6,4.6,7.6,10.5
		C143.7,341.5,141.5,346.1,136.2,346.1z M177.2,337.6c0,5.3-2.6,8.5-6.8,8.5c-4.2,0-6.7-3.4-6.7-8.6V319H157v18.6
		c0,9.6,5.4,15,13.4,15c8.4,0,13.4-5.5,13.4-15.1V319h-6.6V337.6z M212.3,333c0,1.8,0.1,6,0.1,7.2c-0.4-0.9-1.5-2.5-2.3-3.7
		L198.4,319h-6.3v33h6.5v-14.5c0-1.8-0.1-6-0.1-7.2c0.4,0.8,1.5,2.5,2.3,3.7l12.1,18h5.9v-33h-6.5V333z M237.7,319h-10.3v33h9.9
		c8.5,0,16.9-4.9,16.9-16.5C254.1,323.5,247.1,319,237.7,319z M237.2,345.7h-3.3v-20.2h3.5c7,0,9.9,3.3,9.9,10.1
		C247.3,341.6,244.1,345.7,237.2,345.7z M274.5,325.1c3,0,4.9,1.3,6,3.6l6.1-2.8c-2.1-4.3-5.9-7.3-12.1-7.3c-8.6,0-14.7,7-14.7,17
		c0,10.4,5.8,17,14.4,17c6,0,10-2.8,12.2-7.5l-5.6-3.3c-1.7,2.9-3.5,4.2-6.5,4.2c-5,0-7.8-4.5-7.8-10.5
		C266.7,329.4,269.6,325.1,274.5,325.1z M299,319h-6.6v33h19.9v-6.5H299V319z M329.7,318.5c-9,0-14.4,7-14.4,17
		c0,10.1,5.3,17,14.4,17c9,0,14.3-7,14.3-17C344,325.5,338.7,318.5,329.7,318.5z M329.7,346.1c-5.3,0-7.6-4.6-7.6-10.5
		c0-5.9,2.2-10.5,7.6-10.5c5.3,0,7.5,4.6,7.5,10.5C337.2,341.5,335,346.1,329.7,346.1z M370.7,337.6c0,5.3-2.6,8.5-6.8,8.5
		c-4.2,0-6.8-3.4-6.8-8.6V319h-6.6v18.6c0,9.6,5.4,15,13.4,15c8.4,0,13.4-5.5,13.4-15.1V319h-6.6V337.6z M395.9,319h-10.3v33h9.9
		c8.5,0,16.9-4.9,16.9-16.5C412.3,323.5,405.4,319,395.9,319z M395.4,345.7h-3.3v-20.2h3.5c7,0,9.9,3.3,9.9,10.1
		C405.5,341.6,402.4,345.7,395.4,345.7z"/>
</g>
</svg>
